<svg xmlns="http://www.w3.org/2000/svg" viewBox="0 0 1200 720" role="img" aria-label="图书文创">
  <defs>
    <linearGradient id="paper" x1="0" y1="0" x2="1" y2="1">
      <stop offset="0" stop-color="#fbf8f2"/>
      <stop offset="1" stop-color="#ded2c0"/>
    </linearGradient>
    <filter id="shadow" x="-20%" y="-20%" width="140%" height="150%">
      <feDropShadow dx="0" dy="30" stdDeviation="26" flood-color="#3b3025" flood-opacity="0.26"/>
    </filter>
  </defs>
  <rect width="1200" height="720" fill="url(#paper)"/>
  <rect x="0" y="502" width="1200" height="218" fill="#d2bfa1"/>
  <g filter="url(#shadow)">
    <rect x="236" y="196" width="120" height="330" rx="10" fill="#1f5f54"/>
    <rect x="374" y="152" width="102" height="374" rx="10" fill="#9b3f2f"/>
    <rect x="496" y="226" width="134" height="300" rx="10" fill="#b08a4b"/>
    <rect x="648" y="174" width="108" height="352" rx="10" fill="#f7efe4" stroke="#705f48" stroke-width="10"/>
    <rect x="780" y="254" width="88" height="272" rx="10" fill="#705f48"/>
    <rect x="270" y="270" width="52" height="12" fill="#fffdfa"/>
    <rect x="400" y="232" width="50" height="12" fill="#fffdfa"/>
    <rect x="530" y="306" width="68" height="12" fill="#fffdfa"/>
    <path d="M260 146 C344 82 430 96 492 160" fill="none" stroke="#b08a4b" stroke-width="14" stroke-linecap="round"/>
  </g>
  <g filter="url(#shadow)">
    <rect x="828" y="142" width="156" height="102" rx="18" fill="#fffdfa" stroke="#1f5f54" stroke-width="10"/>
    <path d="M858 196 h94" stroke="#9b3f2f" stroke-width="12" stroke-linecap="round"/>
  </g>
  <text x="82" y="108" fill="#17483f" font-family="Georgia, serif" font-size="52" font-weight="700">Creative Library</text>
</svg>
