<svg xmlns="http://www.w3.org/2000/svg" viewBox="0 0 1200 720" role="img" aria-label="数码电器">
  <defs>
    <linearGradient id="bg" x1="0" y1="0" x2="1" y2="1">
      <stop offset="0" stop-color="#eef3f1"/>
      <stop offset="0.55" stop-color="#d2dfdb"/>
      <stop offset="1" stop-color="#aebfb9"/>
    </linearGradient>
    <linearGradient id="screen" x1="0" y1="0" x2="1" y2="1">
      <stop offset="0" stop-color="#effaf7"/>
      <stop offset="1" stop-color="#6f9189"/>
    </linearGradient>
    <filter id="shadow" x="-20%" y="-20%" width="140%" height="150%">
      <feDropShadow dx="0" dy="30" stdDeviation="28" flood-color="#23332f" flood-opacity="0.28"/>
    </filter>
  </defs>
  <rect width="1200" height="720" fill="url(#bg)"/>
  <path d="M0 530 C230 460 360 610 604 532 C816 464 980 440 1200 528 L1200 720 L0 720 Z" fill="#f7f2e8" opacity="0.82"/>
  <g filter="url(#shadow)">
    <rect x="146" y="180" width="570" height="344" rx="30" fill="#232620"/>
    <rect x="178" y="214" width="506" height="268" rx="18" fill="url(#screen)"/>
    <rect x="392" y="524" width="86" height="52" fill="#232620"/>
    <rect x="292" y="570" width="286" height="28" rx="14" fill="#232620"/>
  </g>
  <g filter="url(#shadow)">
    <rect x="740" y="118" width="198" height="452" rx="42" fill="#1f5f54"/>
    <rect x="766" y="158" width="146" height="332" rx="22" fill="#fffdfa"/>
    <circle cx="840" cy="526" r="18" fill="#fffdfa"/>
    <path d="M796 252 h88 M796 290 h70 M796 328 h100" stroke="#b08a4b" stroke-width="14" stroke-linecap="round"/>
  </g>
  <g filter="url(#shadow)">
    <ellipse cx="708" cy="520" rx="120" ry="46" fill="#2b3029" opacity="0.2"/>
    <circle cx="700" cy="452" r="68" fill="#9b3f2f"/>
    <circle cx="700" cy="452" r="42" fill="#fffdfa"/>
    <rect x="682" y="520" width="36" height="64" rx="18" fill="#25221d"/>
  </g>
  <text x="86" y="104" fill="#17483f" font-family="Georgia, serif" font-size="52" font-weight="700">Digital Atelier</text>
</svg>
