<svg xmlns="http://www.w3.org/2000/svg" viewBox="0 0 1200 720" role="img" aria-label="食品生鲜">
  <defs>
    <linearGradient id="bg" x1="0" y1="0" x2="1" y2="1">
      <stop offset="0" stop-color="#fff7ed"/>
      <stop offset="1" stop-color="#e8d2b6"/>
    </linearGradient>
    <filter id="shadow" x="-20%" y="-20%" width="140%" height="150%">
      <feDropShadow dx="0" dy="30" stdDeviation="26" flood-color="#4a3423" flood-opacity="0.25"/>
    </filter>
  </defs>
  <rect width="1200" height="720" fill="url(#bg)"/>
  <rect x="0" y="500" width="1200" height="220" fill="#d6c0a0"/>
  <g filter="url(#shadow)">
    <ellipse cx="600" cy="474" rx="384" ry="124" fill="#fffdfa"/>
    <ellipse cx="600" cy="442" rx="340" ry="98" fill="#f7efe4" stroke="#b08a4b" stroke-width="12"/>
    <circle cx="432" cy="418" r="78" fill="#9b3f2f"/>
    <circle cx="536" cy="386" r="68" fill="#d9965b"/>
    <circle cx="642" cy="430" r="88" fill="#1f5f54"/>
    <circle cx="762" cy="390" r="72" fill="#b08a4b"/>
    <path d="M336 292 C456 216 642 208 850 292" fill="none" stroke="#705f48" stroke-width="18" stroke-linecap="round"/>
  </g>
  <g filter="url(#shadow)">
    <rect x="158" y="190" width="194" height="250" rx="26" fill="#1f5f54"/>
    <rect x="184" y="226" width="142" height="154" rx="12" fill="#fffdfa"/>
    <path d="M214 284 h82 M214 326 h58" stroke="#9b3f2f" stroke-width="14" stroke-linecap="round"/>
  </g>
  <text x="82" y="108" fill="#17483f" font-family="Georgia, serif" font-size="52" font-weight="700">Gourmet Market</text>
</svg>
