<svg xmlns="http://www.w3.org/2000/svg" viewBox="0 0 1200 720" role="img" aria-label="居家生活">
  <defs>
    <linearGradient id="wall" x1="0" y1="0" x2="1" y2="1">
      <stop offset="0" stop-color="#fbf7ef"/>
      <stop offset="1" stop-color="#dfd2bd"/>
    </linearGradient>
    <filter id="shadow" x="-20%" y="-20%" width="140%" height="150%">
      <feDropShadow dx="0" dy="30" stdDeviation="26" flood-color="#4b3b2a" flood-opacity="0.26"/>
    </filter>
  </defs>
  <rect width="1200" height="720" fill="url(#wall)"/>
  <rect x="0" y="476" width="1200" height="244" fill="#d9c8ac"/>
  <path d="M110 476 H1090" stroke="#a98d62" stroke-width="10"/>
  <g filter="url(#shadow)">
    <rect x="246" y="300" width="470" height="156" rx="40" fill="#1f5f54"/>
    <rect x="298" y="238" width="128" height="104" rx="24" fill="#9b3f2f"/>
    <rect x="464" y="238" width="138" height="104" rx="24" fill="#f7efe4"/>
    <rect x="304" y="448" width="42" height="104" rx="10" fill="#705f48"/>
    <rect x="618" y="448" width="42" height="104" rx="10" fill="#705f48"/>
  </g>
  <g filter="url(#shadow)">
    <rect x="770" y="186" width="180" height="270" rx="90" fill="#b08a4b"/>
    <rect x="842" y="378" width="32" height="164" rx="16" fill="#705f48"/>
    <ellipse cx="858" cy="552" rx="92" ry="22" fill="#705f48" opacity="0.55"/>
  </g>
  <g filter="url(#shadow)">
    <rect x="130" y="170" width="220" height="146" rx="12" fill="#fffdfa" stroke="#c8b596" stroke-width="12"/>
    <path d="M170 260 c42 -62 96 -70 144 -8" fill="none" stroke="#1f5f54" stroke-width="14" stroke-linecap="round"/>
  </g>
  <text x="82" y="108" fill="#17483f" font-family="Georgia, serif" font-size="52" font-weight="700">Maison Living</text>
</svg>
