<svg xmlns="http://www.w3.org/2000/svg" viewBox="0 0 1200 720" role="img" aria-label="运动户外">
  <defs>
    <linearGradient id="sky" x1="0" y1="0" x2="0" y2="1">
      <stop offset="0" stop-color="#eef4ef"/>
      <stop offset="1" stop-color="#d8e0cc"/>
    </linearGradient>
    <filter id="shadow" x="-20%" y="-20%" width="140%" height="150%">
      <feDropShadow dx="0" dy="28" stdDeviation="28" flood-color="#283326" flood-opacity="0.28"/>
    </filter>
  </defs>
  <rect width="1200" height="720" fill="url(#sky)"/>
  <circle cx="1004" cy="126" r="66" fill="#b08a4b" opacity="0.92"/>
  <path d="M0 502 C150 326 270 358 414 492 C578 252 750 290 1200 500 L1200 720 L0 720 Z" fill="#1f5f54"/>
  <path d="M0 574 C220 470 384 610 570 520 C754 430 930 470 1200 558 L1200 720 L0 720 Z" fill="#f7f2e8" opacity="0.95"/>
  <g filter="url(#shadow)">
    <path d="M258 456 C304 384 390 356 480 392 L606 442 C640 456 650 504 620 530 C544 596 352 594 228 520 C204 506 204 478 258 456 Z" fill="#9b3f2f"/>
    <path d="M306 442 C356 410 438 420 510 454" fill="none" stroke="#fffdfa" stroke-width="20" stroke-linecap="round"/>
    <ellipse cx="408" cy="532" rx="210" ry="42" fill="#25221d" opacity="0.16"/>
  </g>
  <g filter="url(#shadow)">
    <rect x="690" y="304" width="276" height="74" rx="37" fill="#25221d" transform="rotate(-17 828 341)"/>
    <circle cx="710" cy="378" r="56" fill="#fffdfa" stroke="#25221d" stroke-width="18"/>
    <circle cx="948" cy="308" r="56" fill="#fffdfa" stroke="#25221d" stroke-width="18"/>
  </g>
  <text x="82" y="110" fill="#17483f" font-family="Georgia, serif" font-size="52" font-weight="700">Outdoor Motion</text>
</svg>
