<svg xmlns="http://www.w3.org/2000/svg" viewBox="0 0 900 650" role="img" aria-label="Electric kettle">
  <rect width="900" height="650" fill="#f4f1eb"/>
  <rect x="190" y="458" width="520" height="44" rx="22" fill="#d8c8ad"/>
  <path d="M282 226 h264 a82 82 0 0 1 82 82 v112 a82 82 0 0 1 -82 82 h-264 a82 82 0 0 1 -82 -82 v-112 a82 82 0 0 1 82 -82z" fill="#fdfbf7" stroke="#1f5f54" stroke-width="16"/>
  <path d="M622 302 c94 -10 124 78 46 126" fill="none" stroke="#1f5f54" stroke-width="24" stroke-linecap="round"/>
  <path d="M240 236 c-88 8 -114 60 -160 92 c52 16 116 6 164 -40z" fill="#1f5f54"/>
  <rect x="346" y="152" width="142" height="78" rx="28" fill="#9b3f2f"/>
  <rect x="384" y="104" width="66" height="62" rx="22" fill="#1f5f54"/>
  <circle cx="418" cy="366" r="42" fill="#d8c8ad"/>
  <path d="M420 342 v32 l24 16" fill="none" stroke="#9b3f2f" stroke-width="10" stroke-linecap="round"/>
</svg>
