<svg xmlns="http://www.w3.org/2000/svg" viewBox="0 0 900 650" role="img" aria-label="Mixed nuts">
  <rect width="900" height="650" fill="#f7efe4"/>
  <ellipse cx="450" cy="386" rx="310" ry="128" fill="#d8c8ad"/>
  <ellipse cx="450" cy="354" rx="284" ry="112" fill="#fffdfa" stroke="#705f48" stroke-width="12"/>
  <g fill="#b08a4b" stroke="#705f48" stroke-width="8">
    <ellipse cx="298" cy="328" rx="46" ry="30" transform="rotate(-24 298 328)"/>
    <ellipse cx="382" cy="374" rx="42" ry="28" transform="rotate(18 382 374)"/>
    <ellipse cx="512" cy="318" rx="46" ry="30" transform="rotate(34 512 318)"/>
    <ellipse cx="594" cy="374" rx="40" ry="28" transform="rotate(-16 594 374)"/>
    <ellipse cx="454" cy="398" rx="40" ry="26" transform="rotate(-8 454 398)"/>
  </g>
  <g fill="#9b3f2f">
    <circle cx="342" cy="382" r="18"/>
    <circle cx="478" cy="344" r="16"/>
    <circle cx="556" cy="332" r="18"/>
    <circle cx="412" cy="304" r="14"/>
  </g>
  <path d="M244 204 c102 -88 310 -110 430 0" fill="none" stroke="#1f5f54" stroke-width="18" stroke-linecap="round"/>
</svg>
